<svg width="420" height="295" viewBox="0 0 420 295" fill="none" xmlns="http://www.w3.org/2000/svg">
<path d="M288.385 167.568C290.318 170.071 292.284 175.303 284.688 176.209C275.192 177.342 280.202 183.598 283.916 186.085" stroke="#5A7581" stroke-width="3" stroke-linecap="round"/>
<path d="M403.625 221.574L417.009 218.283" stroke="#5A7581" stroke-width="3" stroke-linecap="round"/>
<ellipse rx="4.26767" ry="4.08856" transform="matrix(-0.883638 0.468171 -0.532518 -0.846419 297.445 204.974)" fill="#5A7581"/>
<path d="M250.639 201.939C249.158 199.585 249.996 196.475 252.702 195.041C255.409 193.607 258.763 194.496 260.244 196.85C261.725 199.204 260.887 202.314 258.18 203.748C255.474 205.182 252.12 204.293 250.639 201.939Z" stroke="#5A7581" stroke-width="3"/>
<path d="M256.982 173.336L243.598 170.045" stroke="#5A7581" stroke-width="3" stroke-linecap="round"/>
<path d="M384.847 195.903C382.713 198.264 377.714 201.361 374.794 194.862C371.144 186.738 365.856 192.798 364.2 196.734" stroke="#5A7581" stroke-width="3" stroke-linecap="round"/>
<circle r="4.17908" transform="matrix(-0.736785 -0.676127 0.736785 -0.676128 347.819 213.615)" fill="#5A7581"/>
<circle r="5.291" transform="matrix(-0.736784 -0.676128 0.736784 -0.676128 342.821 174.939)" stroke="#5A7581" stroke-width="3"/>
<path d="M382.249 165.564L382.249 152.849" stroke="#5A7581" stroke-width="3" stroke-linecap="round"/>
<ellipse rx="4.08856" ry="4.26768" transform="matrix(0.53252 -0.846417 0.883639 0.468169 414.052 184.897)" fill="#5A7581"/>
<path d="M326.333 287.213L339.717 290.504" stroke="#5A7581" stroke-width="3" stroke-linecap="round"/>
<path d="M338.467 255.133C340.601 252.772 345.6 249.675 348.52 256.174C352.17 264.298 357.458 258.238 359.115 254.302" stroke="#5A7581" stroke-width="3" stroke-linecap="round"/>
<circle r="4.17908" transform="matrix(0.736785 0.676127 -0.736785 0.676127 375.495 237.42)" fill="#5A7581"/>
<circle r="5.29101" transform="matrix(0.736785 0.676127 -0.736785 0.676127 380.493 276.097)" stroke="#5A7581" stroke-width="3"/>
<path d="M65.882 45.0543C63.7478 47.4154 58.7493 50.5128 55.8292 44.0136C52.179 35.8897 46.8913 41.9498 45.2345 45.8857" stroke="#5A7581" stroke-width="3" stroke-linecap="round"/>
<circle r="4.17908" transform="matrix(-0.736784 -0.676128 0.736784 -0.676128 28.8543 62.7668)" fill="#5A7581"/>
<circle r="5.291" transform="matrix(-0.736784 -0.676128 0.736784 -0.676128 23.8555 24.09)" stroke="#5A7581" stroke-width="3"/>
<path d="M63.2836 14.7151L63.2836 1.99993" stroke="#5A7581" stroke-width="3" stroke-linecap="round"/>
<path d="M123.314 62.2852C120.276 61.0046 115.722 57.3756 121.808 53.105C129.414 47.7669 121.667 44.6483 117.095 44.1984" stroke="#5A7581" stroke-width="3" stroke-linecap="round"/>
<ellipse rx="4.08856" ry="4.26768" transform="matrix(0.53252 -0.846418 0.883639 0.468169 95.0866 34.0481)" fill="#5A7581"/>
<path d="M137.243 15.2527C139.949 16.6867 140.787 19.7973 139.306 22.1511C137.825 24.5049 134.471 25.3945 131.764 23.9605C129.058 22.5265 128.22 19.416 129.701 17.0621C131.182 14.7083 134.536 13.8188 137.243 15.2527Z" stroke="#5A7581" stroke-width="3"/>
<path d="M147.367 42.8811L160.751 39.5902" stroke="#5A7581" stroke-width="3" stroke-linecap="round"/>
<path d="M111.914 110.994C109.981 108.491 108.015 103.259 115.612 102.353C125.107 101.22 120.097 94.9641 116.383 92.4768" stroke="#5A7581" stroke-width="3" stroke-linecap="round"/>
<ellipse rx="4.26768" ry="4.08856" transform="matrix(0.883639 -0.46817 0.532519 0.846418 152.659 86.3794)" fill="#5A7581"/>
<path d="M159.002 130.203C160.483 132.557 159.646 135.668 156.939 137.102C154.232 138.536 150.878 137.646 149.397 135.292C147.916 132.939 148.754 129.828 151.461 128.394C154.167 126.96 157.521 127.85 159.002 130.203Z" stroke="#5A7581" stroke-width="3"/>
<path d="M7.36786 136.365L20.7516 139.656" stroke="#5A7581" stroke-width="3" stroke-linecap="round"/>
<path d="M19.502 104.285C21.6362 101.923 26.6347 98.8261 29.5548 105.325C33.2049 113.449 38.4927 107.389 40.1495 103.453" stroke="#5A7581" stroke-width="3" stroke-linecap="round"/>
<circle r="4.17907" transform="matrix(0.736784 0.676128 -0.736784 0.676128 56.5296 86.5718)" fill="#5A7581"/>
<circle r="5.291" transform="matrix(0.736784 0.676128 -0.736784 0.676128 61.5284 125.249)" stroke="#5A7581" stroke-width="3"/>
<path d="M281.035 237.902C284.073 239.183 288.627 242.812 282.541 247.082C274.935 252.421 282.682 255.539 287.254 255.989" stroke="#5A7581" stroke-width="3" stroke-linecap="round"/>
<ellipse rx="4.08855" ry="4.26767" transform="matrix(-0.532519 0.846418 -0.883638 -0.46817 309.262 266.139)" fill="#5A7581"/>
<path d="M267.106 284.934C264.4 283.5 263.562 280.39 265.043 278.036C266.524 275.682 269.878 274.793 272.585 276.227C275.291 277.66 276.129 280.771 274.648 283.125C273.167 285.479 269.813 286.368 267.106 284.934Z" stroke="#5A7581" stroke-width="3"/>
<path d="M254.804 242.259L241.421 245.55" stroke="#5A7581" stroke-width="3" stroke-linecap="round"/>
<path d="M369.612 131.43C367.679 128.927 365.713 123.695 373.309 122.788C382.805 121.655 377.795 115.4 374.081 112.913" stroke="#5A7581" stroke-width="3" stroke-linecap="round"/>
<ellipse rx="4.26767" ry="4.08856" transform="matrix(0.883638 -0.46817 0.532518 0.846419 360.552 94.0239)" fill="#5A7581"/>
<path d="M407.358 97.0589C408.839 99.4127 408.002 102.523 405.295 103.957C402.589 105.391 399.234 104.502 397.753 102.148C396.272 99.794 397.11 96.6834 399.817 95.2494C402.523 93.8155 405.877 94.705 407.358 97.0589Z" stroke="#5A7581" stroke-width="3"/>
<path d="M401.015 125.662L414.399 128.953" stroke="#5A7581" stroke-width="3" stroke-linecap="round"/>
<path d="M273.15 103.095C275.284 100.734 280.283 97.6366 283.203 104.136C286.853 112.26 292.141 106.2 293.798 102.264" stroke="#5A7581" stroke-width="3" stroke-linecap="round"/>
<circle r="4.17908" transform="matrix(0.736784 0.676128 -0.736784 0.676128 310.178 85.3824)" fill="#5A7581"/>
<circle r="5.291" transform="matrix(0.736784 0.676128 -0.736784 0.676128 315.176 124.059)" stroke="#5A7581" stroke-width="3"/>
<path d="M273.926 133.867L266.006 144.3" stroke="#5A7581" stroke-width="3" stroke-linecap="round"/>
<path d="M215.718 85.8639C218.756 87.1446 223.309 90.7736 217.224 95.0441C209.618 100.382 217.365 103.501 221.937 103.951" stroke="#5A7581" stroke-width="3" stroke-linecap="round"/>
<ellipse rx="4.08855" ry="4.26768" transform="matrix(-0.53252 0.846417 -0.883639 -0.468168 243.945 114.101)" fill="#5A7581"/>
<path d="M201.789 132.896C199.083 131.462 198.245 128.352 199.726 125.998C201.207 123.644 204.561 122.755 207.268 124.189C209.974 125.623 210.812 128.733 209.331 131.087C207.85 133.441 204.496 134.33 201.789 132.896Z" stroke="#5A7581" stroke-width="3"/>
<path d="M191.665 105.268L178.281 108.559" stroke="#5A7581" stroke-width="3" stroke-linecap="round"/>
<path d="M223.068 15.5298C225.001 18.0327 226.967 23.2651 219.371 24.1714C209.875 25.3042 214.885 31.5598 218.599 34.0471" stroke="#5A7581" stroke-width="3" stroke-linecap="round"/>
<ellipse rx="4.26767" ry="4.08856" transform="matrix(-0.883639 0.46817 -0.532519 -0.846418 232.128 52.9358)" fill="#5A7581"/>
<path d="M185.322 49.9009C183.841 47.547 184.678 44.4364 187.385 43.0025C190.091 41.5685 193.446 42.4581 194.927 44.8119C196.408 47.1657 195.57 50.2763 192.863 51.7103C190.157 53.1442 186.803 52.2547 185.322 49.9009Z" stroke="#5A7581" stroke-width="3"/>
<path d="M331.664 11.7842L318.28 8.49325" stroke="#5A7581" stroke-width="3" stroke-linecap="round"/>
<path d="M319.53 43.8648C317.396 46.2259 312.397 49.3234 309.477 42.8242C305.827 34.7002 300.539 40.7604 298.882 44.6963" stroke="#5A7581" stroke-width="3" stroke-linecap="round"/>
<circle r="4.17908" transform="matrix(-0.736785 -0.676127 0.736785 -0.676127 282.502 61.5773)" fill="#5A7581"/>
<circle r="5.291" transform="matrix(-0.736784 -0.676128 0.736784 -0.676128 277.504 22.9006)" stroke="#5A7581" stroke-width="3"/>
<path d="M189.748 25.2708L189.748 12.5556" stroke="#5A7581" stroke-width="3" stroke-linecap="round"/>
<path d="M376.962 61.0958C373.925 59.8151 369.371 56.1861 375.456 51.9156C383.062 46.5774 375.315 43.4589 370.743 43.0089" stroke="#5A7581" stroke-width="3" stroke-linecap="round"/>
<ellipse rx="4.08855" ry="4.26766" transform="matrix(0.532517 -0.846419 0.883638 0.468171 348.735 32.8587)" fill="#5A7581"/>
<path d="M390.891 14.0633C393.597 15.4972 394.435 18.6078 392.954 20.9617C391.473 23.3155 388.119 24.205 385.412 22.7711C382.706 21.3371 381.868 18.2265 383.349 15.8727C384.83 13.5188 388.184 12.6293 390.891 14.0633Z" stroke="#5A7581" stroke-width="3"/>
<path d="M403.193 56.739L416.576 53.4481" stroke="#5A7581" stroke-width="3" stroke-linecap="round"/>
<path d="M174.75 280.28C172.817 277.778 170.85 272.545 178.447 271.639C187.943 270.506 182.932 264.251 179.218 261.763" stroke="#5A7581" stroke-width="3" stroke-linecap="round"/>
<ellipse rx="4.26768" ry="4.08856" transform="matrix(0.883639 -0.46817 0.532519 0.846418 165.689 242.875)" fill="#5A7581"/>
<path d="M212.496 245.909C213.977 248.263 213.139 251.374 210.432 252.808C207.726 254.242 204.372 253.352 202.891 250.998C201.41 248.645 202.247 245.534 204.954 244.1C207.66 242.666 211.015 243.556 212.496 245.909Z" stroke="#5A7581" stroke-width="3"/>
<path d="M206.153 274.513L219.536 277.804" stroke="#5A7581" stroke-width="3" stroke-linecap="round"/>
<path d="M78.2874 251.946C80.4216 249.585 85.42 246.487 88.3402 252.986C91.9903 261.11 97.278 255.05 98.9349 251.114" stroke="#5A7581" stroke-width="3" stroke-linecap="round"/>
<circle r="4.17907" transform="matrix(0.736784 0.676128 -0.736784 0.676128 115.315 234.233)" fill="#5A7581"/>
<circle r="5.291" transform="matrix(0.736785 0.676127 -0.736785 0.676127 120.314 272.91)" stroke="#5A7581" stroke-width="3"/>
<path d="M79.0638 282.718L71.1433 293.151" stroke="#5A7581" stroke-width="3" stroke-linecap="round"/>
<path d="M20.8553 234.715C23.8929 235.995 28.4469 239.624 22.3618 243.895C14.7554 249.233 22.5027 252.352 27.0744 252.802" stroke="#5A7581" stroke-width="3" stroke-linecap="round"/>
<ellipse rx="4.08856" ry="4.26767" transform="matrix(-0.532519 0.846418 -0.883639 -0.46817 49.0828 262.952)" fill="#5A7581"/>
<path d="M6.92678 281.747C4.22027 280.313 3.38256 277.203 4.86346 274.849C6.34436 272.495 9.69873 271.606 12.4052 273.039C15.1118 274.473 15.9495 277.584 14.4686 279.938C12.9877 282.292 9.63329 283.181 6.92678 281.747Z" stroke="#5A7581" stroke-width="3"/>
<path d="M28.2051 164.38C30.138 166.883 32.1045 172.116 24.5079 173.022C15.012 174.155 20.0222 180.41 23.7363 182.898" stroke="#5A7581" stroke-width="3" stroke-linecap="round"/>
<ellipse rx="4.26768" ry="4.08856" transform="matrix(-0.883639 0.468169 -0.532519 -0.846418 37.2658 201.786)" fill="#5A7581"/>
<path d="M136.801 160.635L123.418 157.344" stroke="#5A7581" stroke-width="3" stroke-linecap="round"/>
<path d="M124.667 192.715C122.533 195.077 117.535 198.174 114.615 191.675C110.964 183.551 105.677 189.611 104.02 193.547" stroke="#5A7581" stroke-width="3" stroke-linecap="round"/>
<ellipse rx="4.17907" ry="4.17907" transform="matrix(-0.736784 -0.676128 0.736784 -0.676128 87.6397 210.428)" fill="#5A7581"/>
<path d="M78.7426 168.174C80.8956 166.198 84.3863 166.198 86.5392 168.174C88.6922 170.149 88.6922 173.353 86.5392 175.329C84.3863 177.304 80.8956 177.304 78.7426 175.329C76.5896 173.353 76.5896 170.149 78.7426 168.174Z" stroke="#5A7581" stroke-width="3"/>
<path d="M182.099 209.946C179.062 208.666 174.508 205.037 180.593 200.766C188.199 195.428 180.452 192.309 175.88 191.86" stroke="#5A7581" stroke-width="3" stroke-linecap="round"/>
<ellipse rx="4.08856" ry="4.26768" transform="matrix(0.53252 -0.846417 0.883639 0.468169 153.872 181.709)" fill="#5A7581"/>
<path d="M196.028 162.914C198.735 164.348 199.572 167.458 198.091 169.812C196.61 172.166 193.256 173.056 190.55 171.622C187.843 170.188 187.005 167.077 188.486 164.723C189.967 162.369 193.321 161.48 196.028 162.914Z" stroke="#5A7581" stroke-width="3"/>
<path d="M208.33 205.59L221.714 202.299" stroke="#5A7581" stroke-width="3" stroke-linecap="round"/>
</svg>
