<svg width="386" height="299" viewBox="0 0 386 299" fill="none" xmlns="http://www.w3.org/2000/svg">
<path d="M264.909 168.734C266.685 171.24 268.491 176.477 261.513 177.384C252.79 178.518 257.392 184.78 260.804 187.27" stroke="#5A7581" stroke-width="3" stroke-linecap="round"/>
<path d="M370.768 222.794L383.062 219.5" stroke="#5A7581" stroke-width="3" stroke-linecap="round"/>
<circle cx="273.232" cy="206.178" r="4" transform="rotate(150 273.232 206.178)" fill="#5A7581"/>
<circle cx="234.647" cy="200.593" r="5" transform="rotate(150 234.647 200.593)" stroke="#5A7581" stroke-width="3"/>
<path d="M236.062 174.508L223.768 171.214" stroke="#5A7581" stroke-width="3" stroke-linecap="round"/>
<path d="M353.519 197.098C351.558 199.461 346.967 202.562 344.284 196.056C340.931 187.924 336.074 193.99 334.552 197.93" stroke="#5A7581" stroke-width="3" stroke-linecap="round"/>
<circle cx="319.505" cy="214.828" r="4" transform="rotate(-135 319.505 214.828)" fill="#5A7581"/>
<circle cx="314.914" cy="176.112" r="5" transform="rotate(-135 314.914 176.112)" stroke="#5A7581" stroke-width="3"/>
<path d="M351.132 166.728L351.132 154" stroke="#5A7581" stroke-width="3" stroke-linecap="round"/>
<circle cx="380.346" cy="186.08" r="4" transform="rotate(-60 380.346 186.08)" fill="#5A7581"/>
<path d="M299.768 288.5L312.062 291.794" stroke="#5A7581" stroke-width="3" stroke-linecap="round"/>
<path d="M310.914 256.387C312.875 254.024 317.467 250.923 320.149 257.429C323.502 265.561 328.359 259.495 329.881 255.555" stroke="#5A7581" stroke-width="3" stroke-linecap="round"/>
<circle cx="344.928" cy="238.657" r="4" transform="rotate(45 344.928 238.657)" fill="#5A7581"/>
<circle cx="349.52" cy="277.373" r="5" transform="rotate(45 349.52 277.373)" stroke="#5A7581" stroke-width="3"/>
<path d="M60.5189 46.0976C58.5584 48.461 53.9668 51.5615 51.2844 45.0559C47.9314 36.9237 43.0741 42.99 41.5522 46.9298" stroke="#5A7581" stroke-width="3" stroke-linecap="round"/>
<circle cx="26.5055" cy="63.828" r="4" transform="rotate(-135 26.5055 63.828)" fill="#5A7581"/>
<circle cx="21.9136" cy="25.1123" r="5" transform="rotate(-135 21.9136 25.1123)" stroke="#5A7581" stroke-width="3"/>
<path d="M58.132 15.728L58.132 3.00011" stroke="#5A7581" stroke-width="3" stroke-linecap="round"/>
<path d="M113.276 63.3459C110.485 62.064 106.302 58.4313 111.892 54.1565C118.879 48.813 111.762 45.6913 107.563 45.2409" stroke="#5A7581" stroke-width="3" stroke-linecap="round"/>
<circle cx="87.3462" cy="35.0803" r="4" transform="rotate(-60 87.3462 35.0803)" fill="#5A7581"/>
<circle cx="123.554" cy="20.6245" r="5" transform="rotate(-60 123.554 20.6245)" stroke="#5A7581" stroke-width="3"/>
<path d="M135.371 43.9224L147.665 40.6281" stroke="#5A7581" stroke-width="3" stroke-linecap="round"/>
<path d="M102.804 112.104C101.028 109.598 99.222 104.361 106.2 103.453C114.923 102.319 110.321 96.0576 106.909 93.5678" stroke="#5A7581" stroke-width="3" stroke-linecap="round"/>
<circle cx="140.232" cy="87.4641" r="4" transform="rotate(-30 140.232 87.4641)" fill="#5A7581"/>
<circle cx="141.647" cy="133.879" r="5" transform="rotate(-30 141.647 133.879)" stroke="#5A7581" stroke-width="3"/>
<path d="M6.7681 137.5L19.0623 140.794" stroke="#5A7581" stroke-width="3" stroke-linecap="round"/>
<path d="M17.9145 105.387C19.8749 103.024 24.4665 99.9233 27.1489 106.429C30.5019 114.561 35.3592 108.495 36.8812 104.555" stroke="#5A7581" stroke-width="3" stroke-linecap="round"/>
<circle cx="51.9279" cy="87.6569" r="4" transform="rotate(45 51.9279 87.6569)" fill="#5A7581"/>
<circle cx="56.5197" cy="126.373" r="5" transform="rotate(45 56.5197 126.373)" stroke="#5A7581" stroke-width="3"/>
<path d="M258.158 239.139C260.948 240.421 265.131 244.054 259.541 248.328C252.554 253.672 259.671 256.794 263.87 257.244" stroke="#5A7581" stroke-width="3" stroke-linecap="round"/>
<circle cx="284.087" cy="267.405" r="4" transform="rotate(120 284.087 267.405)" fill="#5A7581"/>
<circle cx="247.879" cy="281.86" r="5" transform="rotate(120 247.879 281.86)" stroke="#5A7581" stroke-width="3"/>
<path d="M234.062 243.5L221.768 246.794" stroke="#5A7581" stroke-width="3" stroke-linecap="round"/>
<path d="M339.524 132.56C337.749 130.055 335.942 124.817 342.921 123.91C351.643 122.776 347.041 116.514 343.629 114.024" stroke="#5A7581" stroke-width="3" stroke-linecap="round"/>
<circle cx="331.201" cy="95.1164" r="4" transform="rotate(-30 331.201 95.1164)" fill="#5A7581"/>
<circle cx="369.786" cy="100.701" r="5" transform="rotate(-30 369.786 100.701)" stroke="#5A7581" stroke-width="3"/>
<path d="M368.371 126.786L380.665 130.081" stroke="#5A7581" stroke-width="3" stroke-linecap="round"/>
<path d="M250.914 104.197C252.875 101.833 257.467 98.7326 260.149 105.238C263.502 113.37 268.359 107.304 269.881 103.364" stroke="#5A7581" stroke-width="3" stroke-linecap="round"/>
<circle cx="284.928" cy="86.4662" r="4" transform="rotate(45 284.928 86.4662)" fill="#5A7581"/>
<circle cx="289.52" cy="125.182" r="5" transform="rotate(45 289.52 125.182)" stroke="#5A7581" stroke-width="3"/>
<path d="M251.628 135L244.352 145.443" stroke="#5A7581" stroke-width="3" stroke-linecap="round"/>
<path d="M198.158 86.9483C200.948 88.2302 205.131 91.8629 199.541 96.1377C192.554 101.481 199.671 104.603 203.87 105.053" stroke="#5A7581" stroke-width="3" stroke-linecap="round"/>
<circle cx="224.087" cy="115.214" r="4" transform="rotate(120 224.087 115.214)" fill="#5A7581"/>
<circle cx="187.879" cy="129.67" r="5" transform="rotate(120 187.879 129.67)" stroke="#5A7581" stroke-width="3"/>
<path d="M176.062 106.372L163.768 109.666" stroke="#5A7581" stroke-width="3" stroke-linecap="round"/>
<path d="M204.909 16.5436C206.685 19.049 208.491 24.2866 201.513 25.1938C192.79 26.3278 197.392 32.5896 200.804 35.0794" stroke="#5A7581" stroke-width="3" stroke-linecap="round"/>
<circle cx="213.232" cy="53.9871" r="4" transform="rotate(150 213.232 53.9871)" fill="#5A7581"/>
<circle cx="174.647" cy="48.4021" r="5" transform="rotate(150 174.647 48.4021)" stroke="#5A7581" stroke-width="3"/>
<path d="M304.665 12.7942L292.371 9.49996" stroke="#5A7581" stroke-width="3" stroke-linecap="round"/>
<path d="M293.519 44.9069C291.558 47.2704 286.967 50.3709 284.284 43.8652C280.931 35.7331 276.074 41.7993 274.552 45.7392" stroke="#5A7581" stroke-width="3" stroke-linecap="round"/>
<circle cx="259.505" cy="62.6373" r="4" transform="rotate(-135 259.505 62.6373)" fill="#5A7581"/>
<circle cx="254.914" cy="23.9216" r="5" transform="rotate(-135 254.914 23.9216)" stroke="#5A7581" stroke-width="3"/>
<path d="M174.301 26.2942L174.301 13.5663" stroke="#5A7581" stroke-width="3" stroke-linecap="round"/>
<path d="M346.276 62.1553C343.485 60.8733 339.302 57.2407 344.892 52.9658C351.879 47.6223 344.762 44.5006 340.563 44.0502" stroke="#5A7581" stroke-width="3" stroke-linecap="round"/>
<circle cx="320.346" cy="33.8897" r="4" transform="rotate(-60 320.346 33.8897)" fill="#5A7581"/>
<circle cx="356.554" cy="19.4338" r="5" transform="rotate(-60 356.554 19.4338)" stroke="#5A7581" stroke-width="3"/>
<path d="M370.371 57.7942L382.665 54.5" stroke="#5A7581" stroke-width="3" stroke-linecap="round"/>
<path d="M160.524 281.56C158.749 279.054 156.942 273.817 163.921 272.909C172.643 271.775 168.041 265.514 164.629 263.024" stroke="#5A7581" stroke-width="3" stroke-linecap="round"/>
<circle cx="152.201" cy="244.116" r="4" transform="rotate(-30 152.201 244.116)" fill="#5A7581"/>
<circle cx="190.786" cy="249.701" r="5" transform="rotate(-30 190.786 249.701)" stroke="#5A7581" stroke-width="3"/>
<path d="M189.371 275.786L201.665 279.08" stroke="#5A7581" stroke-width="3" stroke-linecap="round"/>
<path d="M71.9145 253.196C73.8749 250.833 78.4665 247.732 81.1489 254.238C84.5019 262.37 89.3592 256.304 90.8812 252.364" stroke="#5A7581" stroke-width="3" stroke-linecap="round"/>
<circle cx="105.928" cy="235.466" r="4" transform="rotate(45 105.928 235.466)" fill="#5A7581"/>
<circle cx="110.52" cy="274.182" r="5" transform="rotate(45 110.52 274.182)" stroke="#5A7581" stroke-width="3"/>
<path d="M72.6277 284L65.3519 294.443" stroke="#5A7581" stroke-width="3" stroke-linecap="round"/>
<path d="M19.1576 235.948C21.9479 237.23 26.1312 240.863 20.5414 245.137C13.5542 250.481 20.6709 253.603 24.8704 254.053" stroke="#5A7581" stroke-width="3" stroke-linecap="round"/>
<circle cx="45.0872" cy="264.214" r="4" transform="rotate(120 45.0872 264.214)" fill="#5A7581"/>
<circle cx="8.87917" cy="278.67" r="5" transform="rotate(120 8.87917 278.67)" stroke="#5A7581" stroke-width="3"/>
<path d="M25.9091 165.544C27.6846 168.049 29.4911 173.287 22.5128 174.194C13.79 175.328 18.3923 181.59 21.8041 184.079" stroke="#5A7581" stroke-width="3" stroke-linecap="round"/>
<circle cx="34.2322" cy="202.987" r="4" transform="rotate(150 34.2322 202.987)" fill="#5A7581"/>
<path d="M125.665 161.794L113.371 158.5" stroke="#5A7581" stroke-width="3" stroke-linecap="round"/>
<path d="M114.519 193.907C112.558 196.27 107.967 199.371 105.284 192.865C101.931 184.733 97.0741 190.799 95.5522 194.739" stroke="#5A7581" stroke-width="3" stroke-linecap="round"/>
<circle cx="80.5055" cy="211.637" r="4" transform="rotate(-135 80.5055 211.637)" fill="#5A7581"/>
<circle cx="75.9136" cy="172.922" r="5" transform="rotate(-135 75.9136 172.922)" stroke="#5A7581" stroke-width="3"/>
<path d="M167.276 211.155C164.485 209.873 160.302 206.241 165.892 201.966C172.879 196.622 165.762 193.501 161.563 193.05" stroke="#5A7581" stroke-width="3" stroke-linecap="round"/>
<circle cx="141.346" cy="182.89" r="4" transform="rotate(-60 141.346 182.89)" fill="#5A7581"/>
<circle cx="177.554" cy="168.434" r="5" transform="rotate(-60 177.554 168.434)" stroke="#5A7581" stroke-width="3"/>
<path d="M191.371 206.794L203.665 203.5" stroke="#5A7581" stroke-width="3" stroke-linecap="round"/>
</svg>
