<svg width="64" height="64" viewBox="0 0 64 64" fill="none" xmlns="http://www.w3.org/2000/svg">
<rect x="62" y="62" width="60" height="60" rx="13" transform="rotate(180 62 62)" fill="#F7F4EC" stroke="black" stroke-width="3"/>
<path d="M41.0638 26.6862H33.8209L28.2693 32.8261V18.3403H22.6808V44.9589H28.2693V40.4734L30.0708 38.5248L34.3724 44.9589H41.2109L33.9312 34.3703L41.0638 26.6862Z" fill="black"/>
<circle cx="52.6644" cy="36.3238" r="2.96721" transform="rotate(-135 52.6644 36.3238)" fill="#FFD32C"/>
<circle cx="13.6006" cy="17.6856" r="2.96721" transform="rotate(-135 13.6006 17.6856)" fill="#219653"/>
<path d="M17.2048 46.2903L14.7489 46.2343C14.4592 46.2277 14.2497 46.4655 14.3223 46.7461C14.4997 47.4325 14.7947 48.493 14.43 49.0328C13.7126 50.0949 11.3316 49.9419 10.2714 51.244C9.31454 52.4193 9.52232 54.6802 9.772 56.2348C9.81113 56.4784 10.0255 56.6534 10.2722 56.648L12.3416 56.603C12.6706 56.5959 12.9025 56.2783 12.8333 55.9565C12.6662 55.1791 12.5358 54.0286 13.011 53.31C14.0564 51.7288 15.6298 52.1641 16.9923 50.9544C17.9688 50.0875 17.9974 47.894 17.6446 46.6173C17.5905 46.4212 17.4082 46.2949 17.2048 46.2903Z" fill="#EA6A3B"/>
<path d="M50.0323 12.8749L49.8048 11.3082C49.744 10.8895 49.4265 10.5486 49.0062 10.5007C45.4958 10.1012 42.0911 11.9297 40.5793 13.6991C40.2772 14.0528 40.3512 14.5682 40.687 14.8902L41.9883 16.1381C42.2328 16.3725 42.6352 16.3 42.8197 16.016C44.452 13.5036 47.5737 13.2244 49.371 13.4915C49.7356 13.5457 50.0853 13.2396 50.0323 12.8749Z" fill="#194E97"/>
<path d="M43.9986 51.9449L44.2377 53.592C44.3119 54.1027 44.7635 54.4771 45.2758 54.4142C48.2581 54.0478 50.9217 52.6812 52.9145 51.4385C53.4568 51.1003 53.5215 50.3437 53.0603 49.9014L51.8809 48.7704C51.7108 48.6074 51.4497 48.586 51.2527 48.7151C48.6889 50.3954 46.7856 51.0316 44.4309 51.3721C44.1537 51.4122 43.9583 51.6677 43.9986 51.9449Z" fill="#EB5757"/>
</svg>
