<svg width="181" height="110" viewBox="0 0 181 110" fill="none" xmlns="http://www.w3.org/2000/svg">
<path d="M133.282 43.8397C133.282 43.1772 132.847 42.5933 132.213 42.4029C131.298 42.1283 130.034 41.9692 128.818 41.9692C126.616 41.9692 123.335 42.5719 120.762 44.5793V43.8397C120.762 43.0112 120.09 42.3397 119.262 42.3397L108.372 42.3397C107.543 42.3397 106.872 43.0112 106.872 43.8397V80.6589C106.872 81.4873 107.543 82.1589 108.372 82.1589H119.632C120.461 82.1589 121.132 81.4873 121.132 80.6589V64.5829C121.132 61.1912 122.069 59.1187 123.295 57.8926C124.527 56.6604 126.253 56.0817 128.226 56.0817C129.27 56.0817 130.331 56.1516 131.438 56.4122C131.884 56.5172 132.354 56.4125 132.713 56.128C133.072 55.8434 133.282 55.4103 133.282 54.9521V43.8397Z" fill="#F7F4EC" stroke="black" stroke-width="3" stroke-linejoin="round"/>
<path d="M178.409 44.8436C178.815 44.4064 178.923 43.7703 178.685 43.2235C178.446 42.6767 177.906 42.3232 177.31 42.3232H162.715C162.291 42.3232 161.887 42.5026 161.603 42.8171L153.029 52.2995V27.0063C153.029 26.1779 152.357 25.5063 151.529 25.5063H140.268C139.44 25.5063 138.768 26.1779 138.768 27.0063V80.6424C138.768 81.4708 139.44 82.1424 140.268 82.1424H151.529C152.357 82.1424 153.029 81.4708 153.029 80.6424V72.1914L154.969 70.0928L162.58 81.4761C162.858 81.8924 163.326 82.1424 163.827 82.1424H177.606C178.163 82.1424 178.674 81.8337 178.934 81.3407C179.193 80.8477 179.158 80.2516 178.842 79.7926L164.854 59.4466L178.409 44.8436Z" fill="#F7F4EC" stroke="black" stroke-width="3" stroke-linejoin="round"/>
<path d="M57.51 44.8436C57.9158 44.4064 58.024 43.7703 57.7855 43.2235C57.547 42.6767 57.0071 42.3232 56.4106 42.3232H41.8163C41.3922 42.3232 40.988 42.5026 40.7036 42.8171L32.1297 52.2995V27.0063C32.1297 26.1779 31.4582 25.5063 30.6297 25.5063H19.3691C18.5407 25.5063 17.8691 26.1779 17.8691 27.0063V80.6424C17.8691 81.4708 18.5407 82.1424 19.3691 82.1424H30.6297C31.4582 82.1424 32.1297 81.4708 32.1297 80.6424V72.1914L34.07 70.0928L41.6805 81.4761C41.9589 81.8924 42.4267 82.1424 42.9275 82.1424H56.7069C57.264 82.1424 57.7751 81.8337 58.0345 81.3407C58.2938 80.8477 58.2586 80.2516 57.943 79.7926L43.9551 59.4466L57.51 44.8436Z" fill="#F7F4EC" stroke="black" stroke-width="3" stroke-linejoin="round"/>
<circle cx="90.6182" cy="97.7409" r="7.47888" transform="rotate(-135 90.6182 97.7409)" fill="#FFD32C" stroke="black" stroke-width="3"/>
<circle cx="58.207" cy="19.5421" r="7.47888" transform="rotate(-135 58.207 19.5421)" fill="#219653" stroke="black" stroke-width="3"/>
<path d="M134.282 101.08L135.539 101.899L134.282 101.08C133.735 101.92 133.901 103.018 134.636 103.667L138.586 107.152C139.582 108.031 141.088 107.703 141.688 106.593L140.368 105.881L141.688 106.593C142.031 105.957 142.539 105.117 143.156 104.399C143.799 103.651 144.413 103.209 144.93 103.081C146.298 102.744 147.281 103.053 148.542 103.604C148.692 103.67 148.848 103.74 149.01 103.813C150.196 104.348 151.72 105.036 153.659 105.072C155.621 105.108 157.472 103.919 158.834 102.675C160.243 101.389 161.443 99.7569 162.088 98.3588L160.726 97.7303L162.088 98.3588C162.461 97.5515 162.229 96.6602 161.659 96.1097L160.617 97.1892L161.659 96.1097L157.459 92.0579C156.648 91.2754 155.134 91.2493 154.438 92.4685C154.297 92.7153 154.164 92.9642 154.03 93.2158C153.774 93.6967 153.512 94.1876 153.176 94.6935C152.938 95.0519 152.714 95.3326 152.509 95.527C152.298 95.7269 152.183 95.7629 152.17 95.766C151.931 95.8226 151.562 95.8059 150.958 95.6078C150.386 95.4202 149.771 95.1303 149.021 94.777C148.973 94.7546 148.925 94.732 148.876 94.7091L148.845 94.6945C147.361 93.9962 145.297 93.0249 143.12 93.3377C141.034 93.6376 139.225 95.0412 137.822 96.4893C136.384 97.9742 135.163 99.7263 134.282 101.08Z" fill="#EA6A3B" stroke="black" stroke-width="3"/>
<path d="M143.963 14.6357L143.286 9.97024C143.136 8.93703 142.341 8.05459 141.237 7.88161C137.026 7.22148 132.892 8.07401 129.463 9.57646C126.052 11.0705 123.204 13.2667 121.603 15.4598C120.834 16.5128 121.099 17.858 121.912 18.6368L125.617 22.1904C126.617 23.1491 128.161 22.8008 128.775 21.7126C130.233 19.131 132.549 17.7548 134.985 17.1048C137.448 16.4475 139.942 16.5638 141.507 16.904C142.807 17.1865 144.179 16.1199 143.963 14.6357L142.496 14.8488L143.963 14.6357Z" fill="#20A1DA" stroke="black" stroke-width="3"/>
<path d="M7.18139 88.6787L4.27628 92.4943L5.46974 93.403L4.27628 92.4943C3.50261 93.5105 3.60235 94.997 4.6235 95.8716C10.1985 100.646 17.2144 102.728 22.2748 103.859C23.8617 104.213 25.3204 102.982 25.3022 101.395L25.2455 96.4302C25.2346 95.4784 24.5579 94.6841 23.6528 94.4935C17.3847 93.1734 13.8836 91.3326 10.0065 88.3133C9.1341 87.634 7.86229 87.7844 7.18139 88.6787L8.37484 89.5874L7.18139 88.6787Z" fill="#EB5757" stroke="black" stroke-width="3"/>
<path d="M80.5987 68.5815C78.8432 68.5815 77.16 67.9515 75.9208 66.7271C74.6956 65.5166 73.8014 63.6224 73.8014 60.8952C73.8014 58.1274 74.6974 56.2594 75.911 55.0821C77.141 53.889 78.8231 53.283 80.5987 53.283C82.416 53.283 84.0944 53.8917 85.311 55.079C86.5133 56.2523 87.396 58.1192 87.396 60.8952C87.396 63.6719 86.5126 65.5613 85.3045 66.7549C84.0837 67.9609 82.4057 68.5815 80.5987 68.5815ZM80.5987 39.9114C68.8363 39.9114 59.5408 48.6281 59.5408 60.8952C59.5408 73.1548 68.8286 81.9531 80.5987 81.9531C92.4467 81.9531 101.657 73.1511 101.657 60.8952C101.657 48.6317 92.439 39.9114 80.5987 39.9114Z" fill="#F7F4EC" stroke="black" stroke-width="3" stroke-linejoin="round"/>
</svg>
