<svg width="311" height="128" viewBox="0 0 311 128" fill="none" xmlns="http://www.w3.org/2000/svg">
<path d="M150.791 46.4625C149.866 46.185 148.479 46 147.091 46C143.391 46 137.564 47.4799 135.159 52.6596V46.4625H121.563V92.4321H135.622V72.3609C135.622 63.2039 140.709 59.8741 146.351 59.8741C147.739 59.8741 149.219 59.9666 150.791 60.3366V46.4625Z" fill="black"/>
<path d="M208.193 64.9962H189.971L176.005 80.4428V44H161.946V110.966H176.005V99.6816L180.537 94.7794L191.359 110.966H208.563L190.249 84.3275L208.193 64.9962Z" fill="black"/>
<g filter="url(#filter0_d)">
<path d="M57.2472 33.9962H39.0258L25.0591 49.4428V13H11V79.9659H25.0591V68.6816L29.5914 63.7794L40.4132 79.9659H57.6171L39.3033 53.3275L57.2472 33.9962Z" fill="black"/>
<path d="M57.6136 34.3364L58.3935 33.4962H57.2472H39.0258H38.8038L38.6549 33.6609L25.5591 48.1443V13V12.5H25.0591H11H10.5V13V79.9659V80.4659H11H25.0591H25.5591V79.9659V68.8773L29.5281 64.5843L39.9975 80.2438L40.146 80.4659H40.4132H57.6171H58.5676L58.0291 79.6826L39.9421 53.3742L57.6136 34.3364Z" stroke="black"/>
</g>
<path d="M87.4466 92.3141C82.1744 92.3141 77.0872 88.5218 77.0872 80.8448C77.0872 73.0753 82.1744 69.468 87.4466 69.468C92.8112 69.468 97.8059 73.0753 97.8059 80.8448C97.8059 88.6143 92.8112 92.3141 87.4466 92.3141ZM87.4466 56.5188C73.7574 56.5188 63.0281 66.6007 63.0281 80.8448C63.0281 95.0889 73.7574 105.263 87.4466 105.263C101.228 105.263 111.865 95.0889 111.865 80.8448C111.865 66.6007 101.228 56.5188 87.4466 56.5188Z" fill="black"/>
<path d="M215 96.352C215 103.936 221.048 110.848 231.512 110.848C237.848 110.848 242.456 108.16 244.952 104.128C244.952 107.392 245.336 109.12 245.432 109.504H258.584C258.488 109.024 258.008 105.856 258.008 102.112V78.784C258.008 68.992 252.344 60.352 236.888 60.352C222.872 60.352 216.536 69.376 215.96 76.192L228.632 78.784C228.92 75.232 231.704 71.776 236.792 71.776C241.4 71.776 243.8 74.176 243.8 76.96C243.8 78.592 242.936 79.84 240.344 80.224L229.112 81.952C221.24 83.104 215 87.904 215 96.352ZM235.064 100.288C231.032 100.288 229.4 97.888 229.4 95.392C229.4 92.032 231.704 90.592 234.776 90.112L243.8 88.672V90.784C243.8 98.176 239.384 100.288 235.064 100.288Z" fill="black"/>
<path d="M292.215 88.192C292.215 83.872 294.519 81.376 297.879 78.88L301.527 76.192C307.287 71.872 310.839 66.592 310.839 58.912C310.839 49.312 303.063 40 287.511 40C273.495 40 265.143 49.504 265.143 60.736C265.143 61.984 265.239 63.424 265.527 64.768L278.967 65.248C278.871 64.864 278.679 63.904 278.679 61.696C278.679 57.184 281.943 52.672 287.511 52.672C293.271 52.672 296.055 56.32 296.055 60.064C296.055 62.56 295.191 64.864 292.599 66.784L287.703 70.432C282.231 74.56 280.407 79.456 280.407 83.968C280.407 85.504 280.503 86.848 280.791 88.192H292.215ZM278.583 102.208C278.583 106.72 282.231 110.464 286.839 110.464C291.447 110.464 295.191 106.72 295.191 102.208C295.191 97.6 291.447 93.856 286.839 93.856C282.231 93.856 278.583 97.6 278.583 102.208Z" fill="black"/>
<defs>
<filter id="filter0_d" x="6" y="12" width="57.5398" height="76.9659" filterUnits="userSpaceOnUse" color-interpolation-filters="sRGB">
<feFlood flood-opacity="0" result="BackgroundImageFix"/>
<feColorMatrix in="SourceAlpha" type="matrix" values="0 0 0 0 0 0 0 0 0 0 0 0 0 0 0 0 0 0 127 0"/>
<feOffset dy="4"/>
<feGaussianBlur stdDeviation="2"/>
<feColorMatrix type="matrix" values="0 0 0 0 0 0 0 0 0 0 0 0 0 0 0 0 0 0 0.25 0"/>
<feBlend mode="normal" in2="BackgroundImageFix" result="effect1_dropShadow"/>
<feBlend mode="normal" in="SourceGraphic" in2="effect1_dropShadow" result="shape"/>
</filter>
</defs>
</svg>
