<svg width="155" height="78" viewBox="0 0 155 78" fill="none" xmlns="http://www.w3.org/2000/svg">
<path d="M94 34.1793C94 33.7407 93.7143 33.3533 93.2952 33.2239C92.828 33.0795 92.2018 33 91.6076 33C90.6607 33 89.2872 33.2348 88.0996 33.9921C88.012 33.5293 87.6054 33.1793 87.1171 33.1793H82C81.4477 33.1793 81 33.627 81 34.1793V52C81 52.5523 81.4477 53 82 53H87.2911C87.8434 53 88.2911 52.5523 88.2911 52V44.2191C88.2911 42.6199 88.7198 41.6911 89.2313 41.1642C89.7428 40.6373 90.4668 40.3785 91.3291 40.3785C91.8052 40.3785 92.2765 40.4114 92.7645 40.5296C93.0625 40.6019 93.3772 40.5334 93.6182 40.3438C93.8593 40.1542 94 39.8644 94 39.5578V34.1793Z" fill="#F7F4EC" stroke="black" stroke-width="2" stroke-linejoin="round"/>
<path d="M117.592 34.8302C117.861 34.5384 117.932 34.1147 117.773 33.7509C117.614 33.387 117.254 33.1519 116.857 33.1519H109.821C109.538 33.1519 109.267 33.2724 109.078 33.4833L105.429 37.5415V26C105.429 25.4477 104.981 25 104.429 25H99C98.4477 25 98 25.4477 98 26V52C98 52.5523 98.4477 53 99 53H104.429C104.981 53 105.429 52.5523 105.429 52V48.0086L106.052 47.3308L109.524 52.5537C109.71 52.8325 110.022 53 110.357 53H117C117.371 53 117.711 52.7947 117.884 52.4667C118.058 52.1387 118.035 51.7418 117.825 51.4356L111.204 41.7505L117.592 34.8302Z" fill="#F7F4EC" stroke="black" stroke-width="2" stroke-linejoin="round"/>
<path d="M55.5919 34.8302C55.8614 34.5384 55.9325 34.1147 55.7732 33.7509C55.6139 33.387 55.2543 33.1519 54.8571 33.1519H47.8214C47.5378 33.1519 47.2675 33.2724 47.0778 33.4833L43.4286 37.5415V26C43.4286 25.4477 42.9809 25 42.4286 25H37C36.4477 25 36 25.4477 36 26V52C36 52.5523 36.4477 53 37 53H42.4286C42.9809 53 43.4286 52.5523 43.4286 52V48.0086L44.0518 47.3308L47.5244 52.5537C47.7098 52.8325 48.0224 53 48.3571 53H55C55.3709 53 55.7113 52.7947 55.8844 52.4667C56.0575 52.1387 56.0348 51.7418 55.8255 51.4356L49.2036 41.7505L55.5919 34.8302Z" fill="#F7F4EC" stroke="black" stroke-width="2" stroke-linejoin="round"/>
<circle cx="76.4554" cy="69.4552" r="6.97888" transform="rotate(-135 76.4554 69.4552)" fill="#FFD32C" stroke="black" stroke-width="2"/>
<circle cx="46.4554" cy="11.4555" r="6.97888" transform="rotate(-135 46.4554 11.4555)" fill="#219653" stroke="black" stroke-width="2"/>
<path d="M152.795 37.1118L148.135 33.5997C147.458 33.0894 146.347 33.216 145.948 34.1682C145.848 34.4054 145.751 34.6561 145.651 34.9161C145.45 35.4381 145.234 35.9976 144.952 36.5604C144.75 36.9628 144.542 37.3053 144.328 37.5634C144.111 37.8256 143.934 37.9459 143.809 37.9922C143.453 38.1235 142.979 38.1347 142.317 38.0037C141.695 37.8807 141.02 37.6583 140.245 37.4025C140.191 37.3848 140.137 37.3669 140.082 37.3488C138.495 36.8263 136.458 36.1607 134.489 36.694C132.618 37.2006 131.078 38.7023 129.881 40.2846C128.662 41.8942 127.681 43.747 126.974 45.1897L127.872 45.6296L126.974 45.1897C126.644 45.8638 126.867 46.6656 127.473 47.0815L131.818 50.0621C132.638 50.6248 133.733 50.2458 134.08 49.3606C134.35 48.6714 134.767 47.739 135.321 46.9086C135.889 46.0567 136.517 45.4402 137.16 45.1956C138.633 44.6352 139.777 44.8608 141.13 45.2646C141.292 45.313 141.459 45.3649 141.63 45.4181C142.876 45.8052 144.372 46.2702 146.192 46.0821C147.949 45.9004 149.534 44.6179 150.71 43.2467C151.914 41.8433 152.872 40.1354 153.319 38.7399L152.367 38.4343L153.319 38.7399C153.521 38.111 153.271 37.4707 152.795 37.1118Z" fill="#EA6A3B" stroke="black" stroke-width="2"/>
<path d="M117.07 19.2448L120.304 15.8138C120.878 15.2046 121.031 14.2707 120.595 13.5001C118.551 9.89114 115.392 7.24425 112.148 5.52649C108.917 3.81529 105.513 2.98052 102.908 3.08528C101.884 3.12644 101.174 3.94828 101.089 4.84956L100.61 9.96142C100.513 10.9931 101.437 11.7449 102.371 11.5972C105.464 11.108 108.115 12.1265 110.217 13.689C112.335 15.2628 113.842 17.3536 114.579 18.8535C115.025 19.7594 116.3 20.0619 117.07 19.2448L116.378 18.5923L117.07 19.2448Z" fill="#2D9CDB" stroke="black" stroke-width="2"/>
<path d="M7.16916 34.079L4.02168 37.6972C3.34996 38.4694 3.35578 39.6577 4.12022 40.404L4.8188 39.6885L4.12022 40.404C9.28201 45.4436 16.0493 47.9503 21.005 49.4019C22.2497 49.7664 23.4784 48.8627 23.5467 47.5938L23.8135 42.6356C23.8518 41.9235 23.3843 41.295 22.7149 41.1077C16.471 39.3611 13.0301 37.2584 9.30258 33.9439C8.68195 33.392 7.72224 33.4432 7.16916 34.079Z" fill="#EB5757" stroke="black" stroke-width="2"/>
<path d="M67 46.2182C66.2662 46.2182 65.5727 45.9548 65.0657 45.453C64.568 44.9603 64.1818 44.1695 64.1818 42.9829C64.1818 41.777 64.5692 40.9998 65.0592 40.5236C65.5599 40.0369 66.2528 39.7818 67 39.7818C67.7673 39.7818 68.4577 40.0387 68.9515 40.5215C69.4358 40.9951 69.8182 41.7715 69.8182 42.9829C69.8182 44.1948 69.4354 44.9825 68.9471 45.4658C68.4506 45.9572 67.7604 46.2182 67 46.2182ZM67 33C61.4206 33 57 37.1525 57 42.9829C57 48.8083 61.4155 53 67 53C72.6211 53 77 48.8059 77 42.9829C77 37.155 72.616 33 67 33Z" fill="#F7F4EC" stroke="black" stroke-width="2" stroke-linejoin="round"/>
</svg>
