<svg width="175" height="99" viewBox="0 0 175 99" fill="none" xmlns="http://www.w3.org/2000/svg">
<path d="M128.782 34.8397C128.041 34.6174 126.93 34.4692 125.818 34.4692C122.855 34.4692 118.188 35.6546 116.262 39.8032V34.8397H105.372V71.6589H116.632V55.5829C116.632 48.2487 120.707 45.5817 125.226 45.5817C126.337 45.5817 127.522 45.6558 128.782 45.9521V34.8397Z" fill="#F7F4EC"/>
<path d="M174.31 34.8232H159.715L148.529 47.195V18.0063H137.268V71.6424H148.529V62.6043L152.159 58.6779L160.827 71.6424H174.606L159.938 50.3065L174.31 34.8232Z" fill="#F7F4EC"/>
<path d="M53.4106 34.8232H38.8163L27.6297 47.195V18.0063H16.3691V71.6424H27.6297V62.6043L31.2598 58.6779L39.9275 71.6424H53.7069L39.0385 50.3065L53.4106 34.8232Z" fill="#F7F4EC"/>
<circle cx="88.6183" cy="89.7409" r="5.97888" transform="rotate(-135 88.6183 89.7409)" fill="#FFD32C"/>
<circle cx="56.207" cy="11.5421" r="5.97888" transform="rotate(-135 56.207 11.5421)" fill="#219653"/>
<path d="M155.23 85.6814L150.57 82.1693C150.338 81.9948 150.019 82.059 149.906 82.3262C149.392 83.5528 148.595 86.1833 147.192 86.7013C144.769 87.5959 141.053 84.546 137.787 85.4303C134.702 86.2658 132.306 90.5484 130.909 93.4005C130.8 93.6222 130.872 93.8883 131.076 94.0279L135.42 97.0085C135.692 97.1947 136.065 97.0735 136.185 96.767C136.75 95.3247 137.977 92.7414 139.841 92.0319C143.411 90.6737 145.474 93.236 149.126 92.8584C151.858 92.5759 154.599 88.714 155.404 86.2052C155.466 86.0116 155.392 85.8038 155.23 85.6814Z" fill="#EA6A3B"/>
<path d="M138.479 9.85128L137.801 5.18578C137.74 4.76712 137.423 4.42903 137.005 4.36352C129.264 3.15024 121.635 7.48152 118.814 11.3443C118.54 11.72 118.614 12.2322 118.95 12.5542L122.656 16.1078C122.9 16.3422 123.303 16.27 123.469 15.9751C126.876 9.94108 134.287 9.66921 137.826 10.4382C138.186 10.5165 138.532 10.2161 138.479 9.85128Z" fill="#20A1DA"/>
<path d="M4.37484 81.5874L1.46974 85.403C1.1571 85.8136 1.20726 86.3966 1.59924 86.7323C6.88651 91.2607 13.6035 93.2784 18.6018 94.3948C19.2254 94.5341 19.8096 94.0514 19.8023 93.4124L19.7456 88.4473C19.7429 88.2118 19.5742 88.0099 19.3437 87.9613C12.8466 86.593 9.13713 84.6524 5.08488 81.4968C4.86392 81.3248 4.5445 81.3646 4.37484 81.5874Z" fill="#EB5757"/>
<path d="M77.5987 61.0815C73.376 61.0815 69.3014 58.0441 69.3014 51.8952C69.3014 45.6722 73.376 42.783 77.5987 42.783C81.8955 42.783 85.896 45.6722 85.896 51.8952C85.896 58.1181 81.8955 61.0815 77.5987 61.0815ZM77.5987 32.4114C66.6345 32.4114 58.0408 40.4864 58.0408 51.8952C58.0408 63.304 66.6345 71.4531 77.5987 71.4531C88.6371 71.4531 97.1566 63.304 97.1566 51.8952C97.1566 40.4864 88.6371 32.4114 77.5987 32.4114Z" fill="#F7F4EC"/>
</svg>
