<svg width="105" height="144" viewBox="0 0 105 144" fill="none" xmlns="http://www.w3.org/2000/svg">
<rect x="69.9895" y="89.3047" width="58.4055" height="82.3306" rx="7.03681" transform="rotate(172.763 69.9895 89.3047)" fill="#F7F4EC" stroke="black" stroke-width="2.5"/>
<rect x="63.4707" y="102.26" width="58.4055" height="82.3306" rx="7.03681" transform="rotate(-151.316 63.4707 102.26)" fill="#F7F4EC" stroke="black" stroke-width="2.5"/>
<path d="M55.3299 70.445L54.2599 72.4007L43.8889 66.7264L44.9589 64.7707L49.211 67.0972L49.4461 66.6675L46.6936 61.6002L47.9014 59.3926L47.9903 59.4413L51.2027 65.357L51.4693 65.5029L58.2808 64.8405L58.3697 64.8891L57.1133 67.1856L51.3129 67.6889L51.0778 68.1186L55.3299 70.445ZM52.6471 60.2892C51.3038 59.5542 50.4455 58.6483 50.0722 57.5713C49.7043 56.4845 49.8473 55.3435 50.5012 54.1484C51.1551 52.9532 52.0362 52.2225 53.1445 51.9562C54.2581 51.6799 55.4866 51.9093 56.8299 52.6443L59.1412 53.9088C60.524 54.6654 61.3894 55.5817 61.7376 56.6577C62.0911 57.7239 61.941 58.8545 61.2871 60.0497C60.6332 61.2448 59.7593 61.9859 58.6653 62.2729C57.5768 62.55 56.3412 62.3103 54.9584 61.5538L52.6471 60.2892ZM59.5092 59.0769C59.7037 58.7213 59.8115 58.3953 59.8326 58.0988C59.8437 57.7969 59.7862 57.5151 59.6598 57.2535C59.5334 56.9918 59.3432 56.753 59.0892 56.5371C58.8352 56.3211 58.5354 56.1185 58.1897 55.9294L55.6414 54.5351C55.3154 54.3568 54.9903 54.2238 54.666 54.1362C54.3418 54.0487 54.0354 54.0222 53.7469 54.0569C53.4584 54.0915 53.1901 54.195 52.9419 54.3672C52.6838 54.534 52.4628 54.7853 52.2791 55.1211C52.0954 55.4569 52.0028 55.7785 52.0015 56.0858C51.9904 56.3877 52.048 56.6695 52.1743 56.9311C52.3007 57.1928 52.4882 57.4365 52.7368 57.6624C52.9854 57.8882 53.2727 58.0903 53.5986 58.2687L56.1469 59.6629C56.4926 59.8521 56.8249 59.9954 57.1438 60.0928C57.4626 60.1903 57.7663 60.2217 58.0548 60.187C58.3433 60.1523 58.6116 60.0489 58.8598 59.8767C59.0982 59.6991 59.3146 59.4325 59.5092 59.0769ZM67.9642 47.3531L66.8942 49.3088L63.7829 47.6065C63.5459 47.4768 63.3181 47.4356 63.0997 47.483C62.8867 47.5204 62.7019 47.6824 62.5451 47.9688L61.313 50.2208L65.2244 52.3608L64.1543 54.3165L53.7833 48.6422L55.9558 44.6716C56.2476 44.1382 56.5784 43.7096 56.9481 43.3857C57.3178 43.0618 57.709 42.8394 58.1216 42.7187C58.5297 42.5826 58.9445 42.54 59.3658 42.5909C59.7926 42.6319 60.2035 42.7604 60.5986 42.9766L60.9542 43.1711C61.3789 43.4035 61.7168 43.736 61.9678 44.1685C62.209 44.5956 62.2986 45.1003 62.2368 45.6825L62.5034 45.8284C62.7321 45.5043 63.014 45.3056 63.3493 45.2324C63.69 45.1493 64.0331 45.2023 64.3788 45.3914L67.9642 47.3531ZM59.4462 49.1994L60.4676 47.3326C60.727 46.8585 60.8156 46.4386 60.7334 46.0728C60.6413 45.7015 60.3928 45.4051 59.9879 45.1836L59.8101 45.0863C59.4644 44.8971 59.1005 44.8585 58.7185 44.9703C58.3266 45.0767 58.0009 45.367 57.7415 45.8411L56.7201 47.7079L59.4462 49.1994ZM58.5928 39.8519L62.6783 32.3848L64.5451 33.4062L63.0373 36.1619L71.5415 40.8149L70.4715 42.7705L61.9673 38.1176L60.4595 40.8733L58.5928 39.8519Z" fill="black"/>
<g filter="url(#filter0_d)">
<path fill-rule="evenodd" clip-rule="evenodd" d="M35.1194 116.114C34.8551 114.955 34.8402 112.799 34.3869 110.003C34.129 108.421 33.18 105.253 33.1024 103.81C33.043 102.538 33.2928 102.081 33.7738 101.244C34.6289 99.7551 36.5674 99.1175 38.0315 99.9109C39.1383 100.508 39.7669 101.77 40.3169 102.945C40.6494 103.652 40.9154 104.871 41.0901 105.569C41.2521 106.21 41.2581 106.45 41.4076 107.19C41.6049 108.17 41.6092 108.617 41.7604 107.689C42.1119 106.381 42.7238 104.151 43.119 102.119C43.4174 100.578 43.4397 100.326 43.6158 99.1216C43.8051 97.8403 43.9919 96.965 44.2278 95.6207C44.3982 94.6713 44.7923 92.7505 45.112 91.71C45.5471 90.2863 46.397 88.0222 47.601 87.3149C48.5441 86.7613 50.0508 87.0948 50.7192 87.9486C51.5946 89.066 51.4788 91.1976 51.4701 92.0639C51.4541 93.6213 51.15 95.3037 50.6051 97.4527C49.9111 100.188 49.1138 104.052 48.8267 104.816C49.2595 103.913 49.8529 101.88 50.3595 101.051C50.8187 100.299 51.8041 99.6106 52.6616 99.6663C53.3867 99.7146 54.1655 99.943 54.7606 100.366C55.3927 100.812 55.8983 101.675 55.9557 102.317C56.1216 104.212 54.8267 107.416 54.9301 107.259C55.5083 106.395 56.3515 104.242 57.1914 103.547C57.744 103.088 58.7569 102.885 59.2155 102.974C59.9245 103.112 60.7459 103.402 61.3732 103.835C61.8781 104.185 62.3253 105.235 62.3823 105.674C62.5148 106.736 61.7912 109.289 61.5233 110.178C61.4118 110.546 62.0912 109.263 62.933 108.601C64.4951 107.369 67.8267 108.372 66.5084 111.938C65.8919 113.6 65.9116 113.521 65.4594 114.624C64.928 115.92 64.5816 116.689 64.1348 117.601C63.6545 118.576 62.5337 120.764 61.8048 121.748C61.3036 122.424 59.9723 123.862 58.9285 124.623C58.9285 124.623 55.2489 126.776 54.4094 128.08C53.5687 129.382 53.6515 129.427 53.1901 130.407C52.7298 131.384 52.5123 132.829 52.5123 132.829C52.5123 132.829 50.6171 132.357 49.7248 131.789C48.9177 131.274 48.6381 128.881 48.604 128.17C48.5576 127.19 47.6745 127.013 47.107 127.489C46.2116 128.244 44.4263 129.524 43.6195 129.319C42.0437 128.919 39.0077 127.52 36.5997 126.5C36.5997 126.5 38.0513 124.134 37.4893 122.888C37.0754 121.959 36.4444 120.163 36.0279 119.184L35.1194 116.114Z" fill="#F7F4EC"/>
<path fill-rule="evenodd" clip-rule="evenodd" d="M35.1194 116.114C34.8551 114.955 34.8402 112.799 34.3869 110.003C34.129 108.421 33.18 105.253 33.1024 103.81C33.043 102.538 33.2928 102.081 33.7738 101.244C34.6289 99.7551 36.5674 99.1175 38.0315 99.9109C39.1383 100.508 39.7669 101.77 40.3169 102.945C40.6494 103.652 40.9154 104.871 41.0901 105.569C41.2521 106.21 41.2581 106.45 41.4076 107.19C41.6049 108.17 41.6092 108.617 41.7604 107.689C42.1119 106.381 42.7238 104.151 43.119 102.119C43.4174 100.578 43.4397 100.326 43.6158 99.1216C43.8051 97.8403 43.9919 96.965 44.2278 95.6207C44.3982 94.6713 44.7923 92.7505 45.112 91.71C45.5471 90.2863 46.397 88.0222 47.601 87.3149C48.5441 86.7613 50.0508 87.0948 50.7192 87.9486C51.5946 89.066 51.4788 91.1976 51.4701 92.0639C51.4541 93.6213 51.15 95.3037 50.6051 97.4527C49.9111 100.188 49.1138 104.052 48.8267 104.816C49.2595 103.913 49.8529 101.88 50.3595 101.051C50.8187 100.299 51.8041 99.6106 52.6616 99.6663C53.3867 99.7146 54.1655 99.943 54.7606 100.366C55.3927 100.812 55.8983 101.675 55.9557 102.317C56.1216 104.212 54.8267 107.416 54.9301 107.259C55.5083 106.395 56.3515 104.242 57.1914 103.547C57.744 103.088 58.7569 102.885 59.2155 102.974C59.9245 103.112 60.7459 103.402 61.3732 103.835C61.8781 104.185 62.3253 105.235 62.3823 105.674C62.5148 106.736 61.7912 109.289 61.5233 110.178C61.4118 110.546 62.0912 109.263 62.933 108.601C64.4951 107.369 67.8267 108.372 66.5084 111.938C65.8919 113.6 65.9116 113.521 65.4594 114.624C64.928 115.92 64.5816 116.689 64.1348 117.601C63.6545 118.576 62.5337 120.764 61.8048 121.748C61.3036 122.424 59.9723 123.862 58.9285 124.623C58.9285 124.623 55.2489 126.776 54.4094 128.08C53.5687 129.382 53.6515 129.427 53.1901 130.407C52.7298 131.384 52.5123 132.829 52.5123 132.829C52.5123 132.829 50.6171 132.357 49.7248 131.789C48.9177 131.274 48.6381 128.881 48.604 128.17C48.5576 127.19 47.6745 127.013 47.107 127.489C46.2116 128.244 44.4263 129.524 43.6195 129.319C42.0437 128.919 39.0077 127.52 36.5997 126.5C36.5997 126.5 38.0513 124.134 37.4893 122.888C37.0754 121.959 36.4444 120.163 36.0279 119.184L35.1194 116.114Z" stroke="black" stroke-width="1.7592" stroke-linecap="round" stroke-linejoin="round"/>
</g>
<path fill-rule="evenodd" clip-rule="evenodd" d="M51.3911 113.232C51.9784 113.472 52.2594 114.144 52.0187 114.731L49.0763 121.91C48.8356 122.497 48.1643 122.778 47.5769 122.537C46.9896 122.296 46.7086 121.625 46.9494 121.038L49.8917 113.859C50.1325 113.272 50.8038 112.991 51.3911 113.232ZM55.9489 115.101C56.5362 115.341 56.8172 116.013 56.5765 116.6L53.6341 123.778C53.3934 124.366 52.7221 124.647 52.1347 124.406C51.5474 124.165 51.2664 123.494 51.5072 122.907L54.4495 115.728C54.6903 115.141 55.3616 114.86 55.9489 115.101ZM47.461 112.863C47.7017 112.276 47.4207 111.605 46.8334 111.364C46.246 111.123 45.5747 111.404 45.334 111.992L42.3916 119.17C42.1509 119.757 42.4319 120.429 43.0192 120.669C43.6066 120.91 44.2778 120.629 44.5186 120.042L47.461 112.863Z" fill="black"/>
<path d="M58.9581 77.9049L59.282 78.5296L58.9581 77.9049C57.9471 78.4291 57.5382 79.6569 58.0199 80.6782C55.2242 79.8059 52.8155 79.2695 50.5743 79.0391C47.129 78.6848 44.1911 79.0648 40.9676 79.9112C39.84 80.2073 39.1658 81.3615 39.462 82.4892C39.7581 83.6169 40.9123 84.291 42.0399 83.9949C44.9042 83.2428 47.3206 82.9488 50.1424 83.239C52.3222 83.4631 54.8061 84.0422 57.9805 85.1027L57.1851 85.7412C56.2759 86.471 56.1305 87.7997 56.8603 88.7089C57.5901 89.6182 58.9188 89.7636 59.828 89.0338L63.6187 85.991C64.4031 85.3614 64.6343 84.2659 64.1713 83.373L61.8039 78.8072C61.2673 77.7722 59.9931 77.3682 58.9581 77.9049Z" fill="#EB5757" stroke="black" stroke-width="1.40736" stroke-linecap="round" stroke-linejoin="round"/>
<defs>
<filter id="filter0_d" x="19.465" y="80.1784" width="59.0864" height="62.8518" filterUnits="userSpaceOnUse" color-interpolation-filters="sRGB">
<feFlood flood-opacity="0" result="BackgroundImageFix"/>
<feColorMatrix in="SourceAlpha" type="matrix" values="0 0 0 0 0 0 0 0 0 0 0 0 0 0 0 0 0 0 127 0"/>
<feOffset dy="2.29869"/>
<feGaussianBlur stdDeviation="2.29869"/>
<feColorMatrix type="matrix" values="0 0 0 0 0 0 0 0 0 0 0 0 0 0 0 0 0 0 0.24 0"/>
<feBlend mode="normal" in2="BackgroundImageFix" result="effect1_dropShadow"/>
<feBlend mode="normal" in="SourceGraphic" in2="effect1_dropShadow" result="shape"/>
</filter>
</defs>
</svg>
