<svg width="261" height="50" viewBox="0 0 261 50" fill="none" xmlns="http://www.w3.org/2000/svg">
<path d="M258.25 14.6101C256.58 12.5501 253.32 10.1001 247.25 10.1001C244.306 10.0721 241.404 10.7985 238.82 12.2101C236.698 10.7995 234.198 10.064 231.65 10.1001C229.168 10.1012 226.712 10.6046 224.43 11.5801C222.907 10.5844 221.12 10.0688 219.3 10.1001C216.941 10.0806 214.651 10.8912 212.83 12.3901C211.065 10.8275 208.765 10.0071 206.41 10.1001C204.572 10.0361 202.752 10.4801 201.15 11.3834C199.548 12.2867 198.226 13.6143 197.33 15.2201C197.03 14.5003 196.63 13.8269 196.14 13.2201C195.269 12.1874 194.172 11.3688 192.934 10.8278C191.696 10.2868 190.35 10.0378 189 10.1001C188.197 10.0954 187.395 10.1793 186.61 10.3501C186.808 9.0623 186.723 7.7467 186.36 6.49541C185.996 5.24411 185.364 4.08737 184.506 3.10618C183.649 2.12499 182.588 1.34307 181.396 0.815171C180.205 0.28727 178.913 0.0261497 177.61 0.0500937C175.025 0.0730442 172.537 1.03637 170.61 2.76009C169.733 1.91999 168.696 1.26486 167.56 0.833667C166.424 0.402472 165.214 0.204014 164 0.250094C161.565 0.193298 159.189 1.01006 157.304 2.55261C155.418 4.09517 154.147 6.26164 153.72 8.66009L153.38 10.2701C152.585 10.1568 151.783 10.1 150.98 10.1001C146.721 10.1005 142.592 11.5698 139.29 14.2601C139.077 13.8922 138.836 13.5412 138.57 13.2101C137.694 12.1737 136.59 11.3537 135.344 10.8142C134.099 10.2748 132.746 10.0304 131.39 10.1001C129.552 10.0361 127.732 10.4801 126.13 11.3834C124.528 12.2867 123.206 13.6143 122.31 15.2201C122.01 14.5003 121.61 13.8269 121.12 13.2201C120.251 12.1901 119.157 11.3732 117.923 10.8323C116.688 10.2914 115.346 10.0409 114 10.1001C113.145 10.0944 112.293 10.1884 111.46 10.3801C111.675 9.15514 111.629 7.89864 111.326 6.69251C111.023 5.48639 110.469 4.35772 109.7 3.38009C108.828 2.34781 107.734 1.52699 106.499 0.979584C105.264 0.432174 103.92 0.172477 102.57 0.220093C100.135 0.163298 97.7592 0.980059 95.8736 2.52261C93.9881 4.06517 92.7169 6.23164 92.29 8.63009L91 14.7501C89.328 13.1921 87.3649 11.9794 85.2234 11.1815C83.0818 10.3835 80.8039 10.0161 78.52 10.1001C74.2979 10.0536 70.145 11.1749 66.52 13.3401C65.6098 12.2965 64.4816 11.4654 63.2151 10.9055C61.9485 10.3457 60.5745 10.0707 59.19 10.1001C57.462 10.0976 55.7547 10.4766 54.19 11.2101C52.8273 10.4716 51.2999 10.0898 49.75 10.1001C48.7309 10.0995 47.7181 10.2615 46.75 10.5801C46.2588 9.046 45.4893 7.61548 44.48 6.36009C42.48 3.87009 38.48 0.900094 31.08 0.900094H18.51C12.36 0.900094 8.10002 4.38009 6.83002 10.4601L1.00002 38.2101C0.668787 39.5879 0.65231 41.0226 0.951818 42.4076C1.25133 43.7926 1.85912 45.0923 2.73002 46.2101C3.63105 47.2825 4.76289 48.1372 6.04089 48.7104C7.31889 49.2836 8.70995 49.5604 10.11 49.5201C12.666 49.5313 15.1461 48.652 17.1242 47.0334C19.1024 45.4147 20.4551 43.1577 20.95 40.6501L21.95 35.6501H26.18C29.8505 35.6803 33.4725 34.8117 36.73 33.1201L35.6 38.6601C35.2428 39.9884 35.1986 41.3815 35.471 42.7298C35.7435 44.078 36.3251 45.3447 37.17 46.4301C38.0444 47.4695 39.1477 48.2922 40.3935 48.8336C41.6393 49.3749 42.9935 49.6202 44.35 49.5501C46.7938 49.6299 49.1836 48.8205 51.0759 47.2721C52.9683 45.7237 54.2346 43.5414 54.64 41.1301L55.64 36.4101C56.0398 39.0674 57.1409 41.5701 58.83 43.6601C61 46.3501 65.22 49.5501 73 49.5501C77.15 49.5501 82.83 48.3501 86.88 45.3901C87.0823 45.7417 87.3131 46.0762 87.57 46.3901C88.4425 47.4212 89.5374 48.2413 90.7723 48.7886C92.0072 49.3359 93.3501 49.5962 94.7 49.5501C96.3636 49.5898 98.0115 49.2203 99.4988 48.474C100.986 47.7277 102.267 46.6275 103.23 45.2701C105.65 48.0301 109.37 49.5501 113.75 49.5501C116.214 49.5661 118.655 49.0724 120.92 48.1001C122.43 49.0807 124.2 49.5858 126 49.5501C127.671 49.5814 129.322 49.1787 130.791 48.3812C132.259 47.5836 133.496 46.4187 134.38 45.0001C135.802 46.4943 137.523 47.6725 139.43 48.4581C141.337 49.2438 143.388 49.6192 145.45 49.5601C147.64 49.5747 149.812 49.1708 151.85 48.3701C153.283 49.1767 154.906 49.5874 156.55 49.5601C158.983 49.6156 161.35 48.7637 163.19 47.1701C164.063 47.9792 165.088 48.607 166.206 49.0173C167.323 49.4275 168.511 49.612 169.7 49.5601C171.366 49.618 173.02 49.2586 174.511 48.5146C176.002 47.7706 177.284 46.6656 178.24 45.3001C180.67 48.0501 184.38 49.5601 188.75 49.5601C191.214 49.5761 193.656 49.0824 195.92 48.1101C197.431 49.0872 199.201 49.5888 201 49.5501C203.326 49.5803 205.587 48.7829 207.38 47.3001C209.137 48.8388 211.417 49.6442 213.75 49.5501C215.433 49.6093 217.104 49.2426 218.607 48.4839C220.11 47.7252 221.398 46.5991 222.35 45.2101C222.586 45.6408 222.86 46.0492 223.17 46.4301C224.045 47.4684 225.149 48.2902 226.394 48.8314C227.64 49.3726 228.994 49.6186 230.35 49.5501C232.033 49.6093 233.704 49.2426 235.207 48.4839C236.71 47.7252 237.998 46.5991 238.95 45.2101C239.186 45.6408 239.46 46.0492 239.77 46.4301C240.651 47.4753 241.762 48.3013 243.017 48.8428C244.272 49.3843 245.635 49.6265 247 49.5501C249.444 49.6299 251.834 48.8205 253.726 47.2721C255.618 45.7237 256.885 43.5414 257.29 41.1301L260.44 26.1301C261.62 20.3101 259.91 16.6501 258.25 14.6101ZM38.74 23.7201C36.13 27.3501 31.74 29.7201 26.21 29.7201H17.11L15.06 39.4701C14.847 40.6349 14.2276 41.6863 13.312 42.4371C12.3963 43.1879 11.244 43.5894 10.06 43.5701C7.56002 43.5701 6.31002 41.9201 6.82002 39.4701L12.7 11.7001C13.47 8.05009 15.61 6.90009 18.51 6.90009H31.06C36.78 6.90009 41.06 9.23009 41.43 14.5901C41.5594 17.8461 40.6141 21.0543 38.74 23.7201ZM58.11 23.3001H56.81C53.81 23.3001 51.81 25.3501 50.56 31.4001L48.77 39.9001C48.6465 40.9612 48.1176 41.9336 47.2939 42.6138C46.4702 43.294 45.4154 43.6295 44.35 43.5501C41.5 43.5501 41.06 41.8501 41.47 39.9001L44.38 26.0801L45.76 19.5001C45.9497 18.4612 46.5203 17.5305 47.36 16.8901C48.0564 16.3723 48.9023 16.095 49.77 16.1001C51.62 16.1001 52.77 17.3001 52.36 19.5001L51.77 22.3001H51.87C53.36 19.2501 55.67 16.1001 59.22 16.1001C59.7104 16.0688 60.2019 16.1417 60.6621 16.3141C61.1223 16.4865 61.5408 16.7543 61.89 17.1001C62.1854 17.4408 62.3934 17.8482 62.4962 18.2872C62.599 18.7263 62.5934 19.1837 62.48 19.6201C62.3327 20.664 61.8053 21.6169 60.9989 22.2959C60.1925 22.975 59.1638 23.3326 58.11 23.3001ZM89.21 28.0501C88.9 29.5601 88.45 30.3901 87.6 30.8101C86.8919 31.1177 86.1204 31.2514 85.35 31.2001H68.85C68 35.0501 70 37.8501 74.2 37.8501C79.7 37.8501 80.46 34.2501 83.41 34.2501C83.7692 34.2361 84.1268 34.3043 84.4555 34.4496C84.7843 34.5948 85.0755 34.8132 85.307 35.0882C85.5385 35.3631 85.7042 35.6872 85.7914 36.0359C85.8785 36.3846 85.8849 36.7486 85.81 37.1001C84.88 41.5001 77.4 43.5501 73 43.5501C62.8 43.5501 60.4 36.6501 61.74 30.3001C61.8648 29.6889 62.0217 29.0848 62.21 28.4901C63.2469 24.7925 65.4712 21.5386 68.54 19.2301C71.449 17.1364 74.9565 16.0386 78.54 16.1001C84.66 16.1001 88.21 19.2601 89.2 23.3101C89.5553 24.8697 89.5587 26.489 89.21 28.0501ZM105.43 9.90009L99.12 39.9001C98.9652 40.9474 98.4277 41.9002 97.6113 42.5743C96.795 43.2485 95.7577 43.5961 94.7 43.5501C92.5 43.5501 91.32 42.3001 91.82 39.9001L93.09 33.9001L95.29 23.4201L98.13 9.93009C98.2826 8.88359 98.8181 7.93095 99.6328 7.25664C100.447 6.58234 101.483 6.23436 102.54 6.28009C104.74 6.25009 105.93 7.50009 105.43 9.90009ZM134.31 19.7501L134.22 20.1801L130.68 37.0001L130.07 39.8601C129.61 42.0601 128.3 43.5101 126 43.5101C123.7 43.5101 123 42.0601 123.47 39.8601L123.67 38.9101H123.57C120.95 41.6101 117.9 43.5101 113.75 43.5101C109.35 43.5101 105.02 41.3101 106.57 33.9101L109.57 19.7101C109.701 18.6533 110.234 17.6879 111.06 17.0152C111.885 16.3425 112.939 16.0147 114 16.1001C116.85 16.1001 117.3 17.8001 116.89 19.7501L114.18 32.5001C113.56 35.5001 114.56 37.5001 117.71 37.5001C119.309 37.4077 120.834 36.7963 122.054 35.7586C123.274 34.7209 124.122 33.3135 124.47 31.7501L127.01 19.7501C127.131 18.6898 127.658 17.7175 128.48 17.0371C129.302 16.3566 130.356 16.0209 131.42 16.1001C134.27 16.1001 134.72 17.8001 134.31 19.7501ZM160.58 40.1001C160.11 42.3501 158.8 43.5501 156.58 43.5501C154.36 43.5501 153.58 42.3501 154.01 40.1001L154.25 38.9501H154.15C153.241 40.415 151.959 41.6125 150.436 42.4206C148.913 43.2287 147.203 43.6184 145.48 43.5501C141.29 43.5501 137.89 41.4501 136.83 37.0501C136.317 34.6054 136.358 32.0769 136.95 29.6501C137.473 27.1066 138.47 24.6843 139.89 22.5101C142.36 18.7601 146.14 16.1001 151.05 16.1001C154.3 16.1001 156.52 17.4501 157.48 19.8001H157.58L159.66 9.90009C159.813 8.86691 160.339 7.92549 161.139 7.25319C161.938 6.58089 162.956 6.22412 164 6.25009C165.92 6.25009 167.07 7.20009 167 9.04009C166.999 9.3197 166.965 9.59823 166.9 9.87009V10.0001L160.58 40.1001ZM178.36 19.7501L174.12 39.9001C173.997 40.9612 173.468 41.9336 172.644 42.6138C171.82 43.294 170.765 43.6295 169.7 43.5501C166.85 43.5501 166.41 41.8501 166.82 39.9001L171.05 19.7501C171.174 18.689 171.702 17.7166 172.526 17.0364C173.35 16.3562 174.405 16.0207 175.47 16.1001C178.32 16.1001 178.77 17.8001 178.36 19.7501ZM180.59 9.85009C180.342 10.8984 179.759 11.837 178.929 12.523C178.098 13.209 177.066 13.6048 175.99 13.6501C175.567 13.6726 175.144 13.6032 174.751 13.4465C174.357 13.2899 174.002 13.0498 173.71 12.7428C173.419 12.4358 173.197 12.0691 173.06 11.6682C172.924 11.2672 172.876 10.8414 172.92 10.4201C172.92 10.4201 172.92 10.1801 172.92 10.0601C172.92 9.94009 172.92 9.95009 172.92 9.90009C173.168 8.85181 173.751 7.91318 174.582 7.22717C175.412 6.54117 176.444 6.14538 177.52 6.10009C177.992 6.07389 178.463 6.1594 178.895 6.34968C179.327 6.53995 179.709 6.82961 180.008 7.19508C180.307 7.56056 180.516 7.99151 180.617 8.45287C180.718 8.91423 180.709 9.39296 180.59 9.85009ZM209.31 19.7501L205.07 39.9001C204.994 40.2424 204.887 40.5771 204.75 40.9001V41.0001C204.486 41.7744 203.978 42.442 203.301 42.902C202.625 43.362 201.817 43.5895 201 43.5501C198.7 43.5501 198 42.1001 198.47 39.9001L198.67 38.9501H198.57C195.95 41.6501 192.9 43.5501 188.75 43.5501C184.35 43.5501 180.02 41.3501 181.57 33.9501L184.57 19.7501C184.691 18.6861 185.221 17.7107 186.047 17.0297C186.874 16.3487 187.932 16.0154 189 16.1001C191.85 16.1001 192.3 17.8001 191.89 19.7501L189.18 32.5001C188.56 35.5001 189.56 37.5001 192.71 37.5001C194.309 37.4077 195.834 36.7963 197.054 35.7586C198.274 34.7209 199.122 33.3135 199.47 31.7501L202.01 19.7501C202.131 18.6898 202.658 17.7175 203.48 17.0371C204.302 16.3566 205.356 16.0209 206.42 16.1001C208.31 16.1001 209.15 16.8501 209.42 17.9301C209.515 18.5376 209.478 19.1585 209.31 19.7501ZM254.51 24.9501L251.37 39.9501C251.235 40.9929 250.708 41.9453 249.897 42.6139C249.085 43.2825 248.049 43.6172 247 43.5501C244.15 43.5501 243.71 41.8501 244.12 39.9001L246.88 26.8001C247.42 24.2001 246.71 22.1001 243.88 22.1001C242.325 22.187 240.844 22.7898 239.67 23.8131C238.497 24.8364 237.698 26.2218 237.4 27.7501L234.77 39.9001C234.647 40.9612 234.118 41.9336 233.294 42.6138C232.47 43.294 231.415 43.6295 230.35 43.5501C227.5 43.5501 227.06 41.8501 227.47 39.9001L230.22 26.8001C230.77 24.2001 230.06 22.1001 227.22 22.1001C225.664 22.1848 224.18 22.7867 223.004 23.8101C221.829 24.8336 221.028 26.2202 220.73 27.7501L218.17 39.9001C218.047 40.9612 217.518 41.9336 216.694 42.6138C215.87 43.294 214.815 43.6295 213.75 43.5501C211.84 43.5501 211.01 42.7901 210.8 41.7001C210.7 41.1016 210.724 40.489 210.87 39.9001L215.11 19.7501C215.183 19.407 215.29 19.072 215.43 18.7501C215.731 17.9661 216.266 17.2934 216.961 16.8231C217.657 16.3527 218.48 16.1073 219.32 16.1201C221.47 16.1201 222.47 17.5701 222.01 19.7701L221.81 20.7201H221.91C223.113 19.2993 224.606 18.1533 226.29 17.3597C227.974 16.5661 229.809 16.1434 231.67 16.1201C234.17 16.1201 237.08 17.2701 237.67 20.7201C240.32 17.8701 243.28 16.1201 247.23 16.1201C252.33 16.1001 255.89 18.4001 254.51 25.0001V24.9501Z" fill="#E0E0E0"/>
<path d="M32.9099 18.2999C32.5407 19.8089 31.6585 21.1426 30.4144 22.0729C29.1704 23.0032 27.6417 23.4723 26.0899 23.4H18.4399L20.5799 13.2H27.3799C31.4299 13.2 33.6699 14.6999 32.9099 18.2999Z" fill="#E0E0E0"/>
<path d="M82.53 27H69.73C71.28 23.45 73.95 21.2 77.6 21.2C80.85 21.2 82.84 23.65 82.53 27Z" fill="#E0E0E0"/>
<path d="M155.82 29.9C154.95 34.05 152.55 37.9 148.3 37.9C144.42 37.8 143.3 34.25 144.17 29.9C144.89 26.5 147.03 21.8 151.68 21.8C156.14 21.75 156.61 26.15 155.82 29.9Z" fill="#E0E0E0"/>
<path d="M166.93 9.90007C166.996 9.62821 167.029 9.34967 167.03 9.07007C166.982 9.34476 166.949 9.62182 166.93 9.90007Z" fill="#E0E0E0"/>
<path d="M166.93 9.90007C166.996 9.62821 167.029 9.34967 167.03 9.07007C166.982 9.34476 166.949 9.62182 166.93 9.90007Z" fill="#E0E0E0"/>
<path d="M166.93 9.90007C166.996 9.62821 167.029 9.34967 167.03 9.07007C166.982 9.34476 166.949 9.62182 166.93 9.90007Z" fill="#FCFCFC"/>
</svg>
