<svg width="217" height="67" viewBox="0 0 217 67" fill="none" xmlns="http://www.w3.org/2000/svg">
<g clip-path="url(#clip0)">
<path d="M13.5389 3.11966L9.69791 8.16443C9.38528 8.57505 9.43543 9.15751 9.82501 9.496C16.5582 15.3461 25.202 17.8858 31.5254 19.2775C32.1495 19.4149 32.7345 18.9325 32.7272 18.2936L32.6517 11.685C32.649 11.4494 32.4797 11.2473 32.2491 11.1991C24.0233 9.47847 19.3678 7.03145 14.2492 3.02987C14.0285 2.85738 13.7086 2.89683 13.5389 3.11966Z" fill="#EB5757"/>
<path d="M214.77 51.181L208.778 46.6656C208.546 46.4912 208.224 46.554 208.108 46.8197C207.467 48.291 206.467 51.7396 204.667 52.4041C201.643 53.521 197.002 49.7131 192.925 50.8172C189.038 51.8697 186.028 57.3032 184.291 60.8633C184.182 61.0851 184.254 61.3516 184.458 61.4912L190.104 65.3647C190.375 65.5509 190.749 65.4296 190.867 65.1223C191.543 63.357 193.095 59.9706 195.489 59.0596C199.946 57.3638 202.522 60.5628 207.081 60.0914C210.521 59.7358 213.972 54.8356 214.945 51.7061C215.005 51.5119 214.932 51.3034 214.77 51.181Z" fill="#EA6A3B"/>
</g>
<defs>
<clipPath id="clip0">
<rect width="217" height="67" fill="white"/>
</clipPath>
</defs>
</svg>
